# xmcd CD database file
#
# Track frame offsets:
#	150
#	3352
#	18786
#	37786
#	52926
#	70599
#	82953
#	96787
#	104797
#	128330
#	142006
#	151436
#	160984
#	176992
#
# Disc length: 2519 seconds
#
# Revision: 0
# Processed by: cddbd v1.4PL0 Copyright (c) Steve Scherf et al.
# Submitted via: CDex 1.50beta10
#
DISCID=a609d50e
DTITLE=Koslowski - Blues Dessous
DYEAR=1994
DGENRE=Blues
TTITLE0=Danke
TTITLE1=Der dicke Junge
TTITLE2=Blockwart Blues
TTITLE3=Jazzmusik
TTITLE4=Mama, Mama
TTITLE5=Groupies
TTITLE6=Schlaf mit mir
TTITLE7=Inkontinenz, gezz aber wacker...
TTITLE8=Sesselfurzer
TTITLE9=Moni, Moni
TTITLE10=Ich bin ein Liebhaber
TTITLE11=Wachturm (Klerikal Rock)
TTITLE12=Mädchen mit den dicken Brillengläsern
TTITLE13=Die Frau, die ich gern haben will
EXTD=YEAR: 1994
EXTT0=
EXTT1=
EXTT2=
EXTT3=
EXTT4=
EXTT5=
EXTT6=
EXTT7=
EXTT8=
EXTT9=
EXTT10=
EXTT11=
EXTT12=
EXTT13=
PLAYORDER=
